HIERARCHY
ROOT Hips
{
	OFFSET 0.00000 0.00000 0.00000
	CHANNELS 6 Xposition Yposition Zposition Zrotation Yrotation Xrotation 
	JOINT LHipJoint
	{
		OFFSET 0 0 0
		CHANNELS 3 Zrotation Yrotation Xrotation
		JOINT LeftUpLeg
		{
			OFFSET 1.54859 -1.61379 0.86856
			CHANNELS 3 Zrotation Yrotation Xrotation
			JOINT LeftLeg
			{
				OFFSET 2.25087 -6.18423 0.00000
				CHANNELS 3 Zrotation Yrotation Xrotation
				JOINT LeftFoot
				{
					OFFSET 2.40328 -6.60297 0.00000
					CHANNELS 3 Zrotation Yrotation Xrotation
					JOINT LeftToeBase
					{
						OFFSET 0.17435 -0.47901 2.02453
						CHANNELS 3 Zrotation Yrotation Xrotation
						End Site
						{
							OFFSET 0.00000 -0.00000 1.04844
						}
					}
				}
			}
		}
	}
	JOINT RHipJoint
	{
		OFFSET 0 0 0
		CHANNELS 3 Zrotation Yrotation Xrotation
		JOINT RightUpLeg
		{
			OFFSET -1.54669 -1.61379 0.86856
			CHANNELS 3 Zrotation Yrotation Xrotation
			JOINT RightLeg
			{
				OFFSET -2.28132 -6.26789 0.00000
				CHANNELS 3 Zrotation Yrotation Xrotation
				JOINT RightFoot
				{
					OFFSET -2.51636 -6.91365 0.00000
					CHANNELS 3 Zrotation Yrotation Xrotation
					JOINT RightToeBase
					{
						OFFSET -0.15124 -0.41552 2.21090
						CHANNELS 3 Zrotation Yrotation Xrotation
						End Site
						{
							OFFSET -0.00000 -0.00000 1.13399
						}
					}
				}
			}
		}
	}
	JOINT LowerBack
	{
		OFFSET 0 0 0
		CHANNELS 3 Zrotation Yrotation Xrotation
		JOINT Spine
		{
			OFFSET -0.04287 2.26161 -0.25690
			CHANNELS 3 Zrotation Yrotation Xrotation
			JOINT Spine1
			{
				OFFSET 0.02248 2.28395 -0.10140
				CHANNELS 3 Zrotation Yrotation Xrotation
				JOINT Neck
				{
					OFFSET 0 0 0
					CHANNELS 3 Zrotation Yrotation Xrotation
					JOINT Neck1
					{
						OFFSET -0.11644 1.38496 0.11345
						CHANNELS 3 Zrotation Yrotation Xrotation
						JOINT Head
						{
							OFFSET 0.29383 1.36600 0.06642
							CHANNELS 3 Zrotation Yrotation Xrotation
							End Site
							{
								OFFSET 0.11075 1.41395 -0.00294
							}
						}
					}
				}
				JOINT LeftShoulder
				{
					OFFSET 0 0 0
					CHANNELS 3 Zrotation Yrotation Xrotation
					JOINT LeftArm
					{
						OFFSET 3.51628 0.59542 -0.30346
						CHANNELS 3 Zrotation Yrotation Xrotation
						JOINT LeftForeArm
						{
							OFFSET 4.76405 -0.00000 0.00000
							CHANNELS 3 Zrotation Yrotation Xrotation
							JOINT LeftHand
							{
								OFFSET 3.13759 -0.00000 -0.00000
								CHANNELS 3 Zrotation Yrotation Xrotation
								JOINT LeftFingerBase
								{
									OFFSET 0 0 0
									CHANNELS 3 Zrotation Yrotation Xrotation
									JOINT LeftHandIndex1
									{
										OFFSET 0.73226 -0.00000 -0.00000
										CHANNELS 3 Zrotation Yrotation Xrotation
										End Site
										{
											OFFSET 0.59037 -0.00000 -0.00000
										}
									}
								}
								JOINT LThumb
								{
									OFFSET 0 0 0
									CHANNELS 3 Zrotation Yrotation Xrotation
									End Site
									{
										OFFSET 0.59938 -0.00000 0.59938
									}
								}
							}
						}
					}
				}
				JOINT RightShoulder
				{
					OFFSET 0 0 0
					CHANNELS 3 Zrotation Yrotation Xrotation
					JOINT RightArm
					{
						OFFSET -3.30990 0.84213 -0.36430
						CHANNELS 3 Zrotation Yrotation Xrotation
						JOINT RightForeArm
						{
							OFFSET -5.10161 -0.00000 -0.00000
							CHANNELS 3 Zrotation Yrotation Xrotation
							JOINT RightHand
							{
								OFFSET -3.23267 -0.00000 -0.00000
								CHANNELS 3 Zrotation Yrotation Xrotation
								JOINT RightFingerBase
								{
									OFFSET 0 0 0
									CHANNELS 3 Zrotation Yrotation Xrotation
									JOINT RightHandIndex1
									{
										OFFSET -0.70200 -0.00000 -0.00000
										CHANNELS 3 Zrotation Yrotation Xrotation
										End Site
										{
											OFFSET -0.56597 -0.00000 -0.00000
										}
									}
								}
								JOINT RThumb
								{
									OFFSET 0 0 0
									CHANNELS 3 Zrotation Yrotation Xrotation
									End Site
									{
										OFFSET -0.57461 -0.00000 0.57461
									}
								}
							}
						}
					}
				}
			}
		}
	}
}
MOTION
Frames: 15
Frame Time: .0083333
30.7475 15.5243 0.7034 0 0 0 0 0 0 -21 0 0 0 0 0 0 0 0 0 0 0 0 0 0 21 0 0 0 0 0 0 0 0 0 0 0 0 0 0 0 0 0 0 0 0 0 0 -16 0 0 21 0 0 11 0 0 0 -8 0 0 0 0 0 0 0 0 0 0 0 0 0 0 0 0 0 0 0 0 8 0 0 0 0 0 0 0 0 0 0 0 0 0 0 0 0 0
30.7475 15.5243 0.7034 173.0460 -71.0702 -175.4400 0.0000 0.0000 0.0000 -20.2055 0.3272 -6.0194 3.1449 10.9259 32.0305 1.7023 9.8764 -29.9147 0.2240 -3.0464 -8.4079 0.0000 0.0000 0.0000 15.4620 6.9545 -8.7602 -3.8531 -11.9623 35.5988 -0.9883 -13.6444 -28.1672 -0.6035 4.9728 -13.8309 -5.5986 0.0289 2.2236 0.7642 -0.1716 6.9213 3.9184 -0.5252 5.9846 -16.8561 -7.2220 5.6821 26.7233 -9.2063 -13.9489 11.8115 -5.6174 -2.6719 0.0000 -0.0000 0.0000 -96.7797 -6.3991 16.7068 10.1817 -17.0232 -1.5277 -0.0000 -0.0000 8.1070 16.8947 23.2350 6.8326 -7.1250 0.0000 -0.0000 -12.8017 53.6895 -2.7705 0.0000 -0.0000 0.0000 91.5942 4.7889 13.7087 -16.4074 26.0700 -3.8233 0.0000 0.0000 9.5587 -19.1725 26.6237 -8.8563 7.1250 -0.0000 -0.0000 6.4713 -2.1793 6.2611
30.7487 15.5244 0.7010 172.8280 -71.1459 -175.2160 0.0000 0.0000 0.0000 -20.2409 0.3749 -6.0715 3.1313 10.9046 31.9590 1.6504 10.0164 -29.6773 0.2630 -3.2992 -9.1130 0.0000 0.0000 0.0000 15.3782 6.8209 -8.8620 -3.8667 -11.9809 35.6646 -0.9385 -13.8285 -27.9864 -0.6944 5.3269 -14.8434 -5.6784 -0.0054 2.2938 0.7449 -0.2195 6.8892 3.9418 -0.5496 5.9167 -16.6996 -7.1640 5.5692 26.4684 -9.1407 -13.6644 11.6687 -5.5574 -2.6147 0.0000 -0.0000 0.0000 -96.7768 -6.5066 16.8795 10.0594 -16.8324 -1.4921 -0.0000 -0.0000 7.7937 17.4927 22.4984 6.8765 -7.1250 0.0000 -0.0000 -11.8863 53.0631 -2.3845 0.0000 -0.0000 0.0000 91.6018 4.7263 13.7385 -16.3850 26.0399 -3.8134 0.0000 0.0000 9.5234 -19.1752 26.7475 -8.8952 7.1250 -0.0000 -0.0000 6.4821 -2.0523 6.2866
30.7522 15.5234 0.6987 172.8250 -71.2421 -175.1950 0.0000 0.0000 0.0000 -20.1857 0.3561 -6.1302 3.1313 10.9046 31.9587 1.6477 9.8874 -29.5672 0.2442 -3.1802 -8.7808 0.0000 0.0000 0.0000 15.3946 6.7361 -8.9247 -3.8714 -11.9873 35.6870 -0.8737 -14.1111 -27.7931 -0.7858 5.6590 -15.7983 -5.7122 -0.0416 2.3939 0.7539 -0.2744 6.8623 3.9692 -0.5759 5.8376 -16.4269 -7.1335 5.3814 26.0874 -9.1030 -13.3533 11.4517 -5.5037 -2.5452 0.0000 -0.0000 0.0000 -96.7927 -6.6179 17.2503 10.0082 -16.7524 -1.4773 -0.0000 -0.0000 7.0369 18.2953 21.9736 7.0525 -7.1250 0.0000 -0.0000 -10.8736 52.6790 -2.0746 0.0000 -0.0000 0.0000 91.6138 4.6540 13.7659 -16.3964 26.0552 -3.8184 0.0000 0.0000 9.5169 -19.0547 26.7523 -8.8373 7.1250 -0.0000 -0.0000 6.5548 -2.0682 6.3562
30.7540 15.5228 0.6961 172.9250 -71.2840 -175.2790 0.0000 0.0000 0.0000 -20.1163 0.3977 -6.1391 3.1264 10.8969 31.9330 1.6566 9.7462 -29.5244 0.2335 -3.1101 -8.5856 0.0000 0.0000 0.0000 15.4328 6.6671 -8.9790 -3.8807 -11.9999 35.7318 -0.8869 -14.0368 -27.8157 -0.7669 5.5922 -15.6057 -5.9140 -0.2140 2.4016 0.9989 -0.5177 6.9157 4.3335 -0.7220 5.9278 -16.8694 -6.9044 4.9149 25.7720 -8.8221 -12.9279 11.3808 -5.2789 -2.4036 -0.0000 0.0000 0.0000 -97.3192 -6.8411 16.7065 10.0455 -16.8108 -1.4881 -0.0000 -0.0000 7.1650 18.1157 22.0459 7.0007 -7.1250 0.0000 -0.0000 -11.0810 52.7199 -2.1261 -0.0000 0.0000 0.0000 91.1224 4.7576 14.3188 -16.3729 26.0237 -3.8081 0.0000 0.0000 9.4760 -18.9983 26.5444 -8.7471 7.1250 -0.0000 -0.0000 6.5680 -2.2901 6.3426
30.7546 15.5227 0.6923 172.9030 -71.2954 -175.2300 0.0000 0.0000 0.0000 -20.1010 0.4564 -6.1593 3.1201 10.8869 31.8995 1.6488 9.7488 -29.4756 0.2512 -3.2250 -8.9058 0.0000 0.0000 0.0000 15.4174 6.5984 -9.0619 -3.8934 -12.0172 35.7929 -0.9090 -13.9017 -27.8434 -0.7490 5.5280 -15.4208 -5.9843 -0.2672 2.3333 1.0569 -0.5889 6.9816 4.4312 -0.7704 6.0495 -16.8712 -6.7594 4.5839 25.4909 -8.6163 -12.6906 11.2582 -5.1326 -2.3436 0.0000 -0.0000 0.0000 -97.4637 -7.0453 16.3452 10.0335 -16.7920 -1.4846 -0.0000 -0.0000 7.8340 17.1527 22.5335 6.7457 -7.1250 0.0000 -0.0000 -12.2395 53.0369 -2.4492 0.0000 -0.0000 0.0000 91.0249 4.9195 14.3788 -16.3024 25.9290 -3.7772 0.0000 0.0000 9.5943 -19.1302 26.4178 -8.7731 7.1250 -0.0000 -0.0000 6.4763 -2.3971 6.2402
30.7559 15.5208 0.6883 172.4370 -71.2870 -174.7650 0.0000 0.0000 0.0000 -20.2443 0.4350 -6.1577 3.1153 10.8794 31.8744 1.6694 9.6422 -29.5353 0.2241 -3.0473 -8.4105 0.0000 0.0000 0.0000 15.2284 6.4595 -9.1676 -3.9052 -12.0332 35.8494 -0.9566 -13.6477 -27.9426 -0.7212 5.4266 -15.1294 -6.1569 -0.2516 2.2946 1.0207 -0.5645 7.0591 4.4903 -0.7742 6.1559 -16.7115 -6.6803 4.2345 25.3428 -8.4724 -12.5850 11.1578 -5.0395 -2.3021 0.0000 -0.0000 0.0000 -97.4661 -7.2255 16.4376 10.0441 -16.8085 -1.4877 -0.0000 -0.0000 8.0535 16.6717 22.8342 6.6290 -7.1250 0.0000 -0.0000 -12.8476 53.2498 -2.6415 0.0000 -0.0000 0.0000 91.0641 5.1473 14.2366 -16.2068 25.8002 -3.7355 0.0000 0.0000 9.7263 -19.2390 26.3383 -8.8018 7.1250 -0.0000 -0.0000 6.4030 -2.4597 6.1614
30.7569 15.5172 0.6851 172.1050 -71.2710 -174.4660 0.0000 0.0000 0.0000 -20.3396 0.4404 -6.1453 3.1108 10.8724 31.8506 1.6760 9.5958 -29.5457 0.2064 -2.9251 -8.0702 0.0000 0.0000 0.0000 15.0918 6.3348 -9.2191 -3.9146 -12.0458 35.8943 -0.9949 -13.4462 -28.0261 -0.7029 5.3587 -14.9345 -6.1916 -0.2007 2.2482 0.9234 -0.4935 7.1985 4.4083 -0.7504 6.3228 -16.5708 -6.5564 3.9513 25.3786 -8.2513 -12.6537 11.1449 -4.9301 -2.3249 0.0000 0.0000 0.0000 -97.3494 -7.4419 16.8446 10.1133 -16.9167 -1.5078 -0.0000 -0.0000 7.9103 16.7665 22.7940 6.6575 -7.1250 0.0000 -0.0000 -12.7358 53.2270 -2.6107 0.0000 0.0000 0.0000 91.2057 5.3992 14.0991 -16.1623 25.7403 -3.7162 0.0000 0.0000 9.7490 -19.1944 26.1431 -8.7206 7.1250 -0.0000 -0.0000 6.4107 -2.6670 6.1445
30.7554 15.5190 0.6819 172.2920 -71.2810 -174.6090 0.0000 0.0000 0.0000 -20.2322 0.5980 -6.2480 3.1067 10.8658 31.8287 1.6380 9.6571 -29.3387 0.2442 -3.1800 -8.7803 0.0000 0.0000 0.0000 15.1517 6.2781 -9.3000 -3.9208 -12.0542 35.9240 -0.9451 -13.6132 -27.8255 -0.7787 5.6340 -15.7262 -5.9516 -0.1707 2.0757 0.7959 -0.4441 7.3627 4.1380 -0.7232 6.5846 -16.4703 -6.3496 3.6297 25.4480 -7.9277 -12.5965 11.1486 -4.7641 -2.3243 0.0000 -0.0000 0.0000 -97.1032 -7.6863 17.3502 10.2079 -17.0642 -1.5354 -0.0000 -0.0000 7.5957 16.7458 22.7476 6.6362 -7.1250 0.0000 -0.0000 -12.7363 53.1770 -2.5952 0.0000 -0.0000 0.0000 91.4847 5.6820 13.8875 -16.1230 25.6872 -3.6991 0.0000 0.0000 9.8415 -19.1396 26.0534 -8.6668 7.1250 -0.0000 -0.0000 6.4350 -2.7682 6.1562
30.7517 15.5228 0.6788 172.5730 -71.2553 -174.8050 0.0000 0.0000 0.0000 -20.1025 0.7375 -6.3524 3.1085 10.8687 31.8383 1.6390 9.5578 -29.2753 0.2483 -3.2066 -8.8545 0.0000 0.0000 0.0000 15.2367 6.1519 -9.4581 -3.9215 -12.0552 35.9275 -0.7725 -14.2769 -27.2117 -1.0692 6.5733 -18.4572 -5.7521 -0.1746 1.9744 0.7298 -0.4436 7.4028 3.9551 -0.7129 6.6802 -16.4046 -6.1627 3.1777 25.2739 -7.6881 -12.0100 11.0328 -4.5937 -2.1473 0.0000 0.0000 0.0000 -96.9468 -7.7372 17.7005 10.2927 -17.1961 -1.5604 -0.0000 -0.0000 7.1694 16.4789 22.7372 6.5225 -7.1250 0.0000 -0.0000 -12.9970 53.1185 -2.6309 0.0000 0.0000 0.0000 91.6544 5.7743 13.7267 -16.0458 25.5827 -3.6657 0.0000 0.0000 10.0297 -19.1269 26.2232 -8.7124 7.1250 -0.0000 -0.0000 6.4592 -2.5966 6.2000
30.7479 15.5212 0.6763 172.6800 -71.1995 -174.9020 0.0000 0.0000 0.0000 -20.0568 0.7718 -6.3774 3.1166 10.8815 31.8812 1.6470 9.5619 -29.3307 0.2394 -3.1488 -8.6933 0.0000 0.0000 0.0000 15.2613 6.0235 -9.5313 -3.9194 -12.0523 35.9173 -0.6507 -14.7335 -26.7643 -1.3190 7.2741 -20.5300 -5.6854 -0.1731 2.1616 0.7047 -0.4496 7.2639 3.8930 -0.6972 6.4209 -16.0787 -6.1352 3.0095 24.7244 -7.7016 -11.3705 10.7357 -4.5480 -1.9851 -0.0000 -0.0000 0.0000 -96.8885 -7.4086 18.0980 10.4366 -17.4196 -1.6032 -0.0000 -0.0000 6.6600 16.2986 23.0802 6.5389 -7.1250 0.0000 -0.0000 -13.3280 53.4262 -2.8010 -0.0000 -0.0000 0.0000 91.7088 5.4943 13.6799 -15.9911 25.5086 -3.6421 0.0000 0.0000 10.1604 -19.1564 26.4010 -8.7808 7.1250 -0.0000 -0.0000 6.4588 -2.4097 6.2217
30.7466 15.5184 0.6744 172.7770 -71.1979 -174.9870 0.0000 0.0000 0.0000 -20.0054 0.8040 -6.4585 3.1255 10.8954 31.9281 1.6078 9.7533 -29.2073 0.2829 -3.4207 -9.4523 0.0000 0.0000 0.0000 15.2782 6.0051 -9.5228 -3.9198 -12.0529 35.9193 -0.7584 -14.2121 -27.0386 -1.1368 6.7714 -19.0398 -5.5475 -0.1651 1.9787 0.6453 -0.4318 7.4239 3.7513 -0.6931 6.6927 -15.9256 -6.0291 2.6966 24.5784 -7.5326 -11.2380 10.6425 -4.4433 -1.9447 0.0000 -0.0000 0.0000 -96.8150 -7.6469 18.5034 10.5215 -17.5511 -1.6287 -0.0000 -0.0000 6.4349 16.2175 23.8300 6.7023 -7.1250 0.0000 -0.0000 -13.7538 54.1529 -3.1394 0.0000 -0.0000 0.0000 91.8370 5.7421 13.5990 -15.9325 25.4291 -3.6169 0.0000 0.0000 10.2574 -19.2225 26.3143 -8.7865 7.1250 -0.0000 -0.0000 6.4105 -2.4871 6.1655
30.7488 15.5167 0.6717 172.9490 -71.1484 -175.1810 0.0000 0.0000 0.0000 -19.9119 0.9740 -6.5070 3.1338 10.9086 31.9721 1.5994 9.6935 -29.1089 0.3053 -3.5525 -9.8210 0.0000 0.0000 0.0000 15.3159 5.9567 -9.5159 -3.9241 -12.0587 35.9401 -0.8575 -13.6684 -27.2354 -0.9629 6.2479 -17.5054 -5.5716 -0.1682 2.3696 0.7119 -0.4586 7.2131 3.8378 -0.6888 6.2449 -15.9335 -5.8349 2.5533 24.2127 -7.3153 -10.6985 10.4939 -4.2852 -1.8365 0.0000 0.0000 0.0000 -97.0154 -7.3054 18.2197 10.5878 -17.6538 -1.6488 -0.0000 -0.0000 6.8020 16.2032 24.0754 6.7604 -7.1250 0.0000 -0.0000 -13.8848 54.3923 -3.2519 0.0000 0.0000 0.0000 91.7472 5.3353 13.6732 -15.9359 25.4337 -3.6184 0.0000 0.0000 10.2724 -19.2479 26.1523 -8.7493 7.1250 -0.0000 -0.0000 6.3793 -2.6485 6.1162
30.7521 15.5150 0.6688 173.0090 -71.0759 -175.3000 0.0000 0.0000 0.0000 -19.8466 1.1878 -6.5005 3.1410 10.9199 32.0103 1.6332 9.3964 -29.1229 0.2803 -3.4049 -9.4082 0.0000 0.0000 0.0000 15.3249 5.8654 -9.5228 -3.9309 -12.0679 35.9725 -0.8465 -13.6490 -27.1334 -1.0067 6.3843 -17.9035 -5.5868 -0.1538 2.4422 0.7091 -0.4481 7.2866 3.8435 -0.6899 6.2814 -15.8755 -5.6382 2.5149 24.0455 -7.0383 -10.6870 10.4343 -4.1385 -1.8973 0.0000 -0.0000 0.0000 -97.0896 -7.4186 18.0355 10.6428 -17.7386 -1.6655 -0.0000 -0.0000 7.1255 16.2688 23.7971 6.7158 -7.1250 0.0000 -0.0000 -13.6868 54.1300 -3.1159 0.0000 -0.0000 0.0000 91.7862 5.4472 13.5670 -15.8525 25.3202 -3.5826 0.0000 0.0000 10.5134 -19.2708 26.2466 -8.7892 7.1250 -0.0000 -0.0000 6.3747 -2.5482 6.1235
30.7526 15.5132 0.6680 173.0650 -71.1152 -175.3330 0.0000 0.0000 0.0000 -19.7954 1.1983 -6.5677 3.1420 10.9214 32.0153 1.6221 9.3914 -29.0457 0.2924 -3.4774 -9.6108 0.0000 0.0000 0.0000 15.3341 5.7734 -9.6116 -3.9436 -12.0850 36.0332 -0.8792 -13.5018 -27.2330 -0.9820 6.3079 -17.6804 -5.6752 -0.1946 2.9109 0.7862 -0.5276 6.9963 3.9776 -0.7081 5.7138 -15.9664 -5.3941 2.6352 23.9291 -6.7419 -10.4644 10.4183 -3.9776 -1.9222 -0.0000 0.0000 0.0000 -97.2487 -7.0096 17.9299 10.7170 -17.8531 -1.6881 -0.0000 -0.0000 7.0848 16.3305 23.5852 6.6864 -7.1250 0.0000 -0.0000 -13.5261 53.9322 -3.0125 -0.0000 0.0000 0.0000 91.6776 4.9768 13.5639 -15.8115 25.2644 -3.5651 0.0000 0.0000 10.6586 -19.2371 26.4117 -8.8234 7.1250 -0.0000 -0.0000 6.4114 -2.3849 6.1783
